<mxfile host="app.diagrams.net" modified="2022-11-04T08:03:53.265Z" agent="5.0 (Macintosh; Intel Mac OS X 10_15_7) AppleWebKit/605.1.15 (KHTML, like Gecko) Version/15.6.1 Safari/605.1.15" etag="pDVUNv5hD9bMxYd2zux4" version="20.5.1" type="github">
  <diagram id="C5RBs43oDa-KdzZeNtuy" name="Page-1">
    <mxGraphModel dx="887" dy="565" grid="1" gridSize="10" guides="1" tooltips="1" connect="1" arrows="1" fold="1" page="1" pageScale="1" pageWidth="827" pageHeight="1169" math="0" shadow="0">
      <root>
        <mxCell id="WIyWlLk6GJQsqaUBKTNV-0" />
        <mxCell id="WIyWlLk6GJQsqaUBKTNV-1" parent="WIyWlLk6GJQsqaUBKTNV-0" />
        <mxCell id="-8dzBgkcKJtmzE9KFqQj-19" value="" style="edgeStyle=orthogonalEdgeStyle;rounded=0;orthogonalLoop=1;jettySize=auto;html=1;fontColor=#000000;" edge="1" parent="WIyWlLk6GJQsqaUBKTNV-1" source="WIyWlLk6GJQsqaUBKTNV-3" target="-8dzBgkcKJtmzE9KFqQj-18">
          <mxGeometry relative="1" as="geometry" />
        </mxCell>
        <mxCell id="WIyWlLk6GJQsqaUBKTNV-3" value="__init" style="rounded=1;whiteSpace=wrap;html=1;fontSize=12;glass=0;strokeWidth=1;shadow=0;" parent="WIyWlLk6GJQsqaUBKTNV-1" vertex="1">
          <mxGeometry x="340" y="90" width="120" height="40" as="geometry" />
        </mxCell>
        <mxCell id="-8dzBgkcKJtmzE9KFqQj-2" value="" style="edgeStyle=orthogonalEdgeStyle;rounded=0;orthogonalLoop=1;jettySize=auto;html=1;entryX=1;entryY=0.5;entryDx=0;entryDy=0;" edge="1" parent="WIyWlLk6GJQsqaUBKTNV-1" source="-8dzBgkcKJtmzE9KFqQj-0" target="-8dzBgkcKJtmzE9KFqQj-1">
          <mxGeometry relative="1" as="geometry">
            <mxPoint x="180" y="200" as="targetPoint" />
          </mxGeometry>
        </mxCell>
        <mxCell id="-8dzBgkcKJtmzE9KFqQj-0" value="GetSkinConfig" style="rounded=1;whiteSpace=wrap;html=1;fontSize=12;glass=0;strokeWidth=1;shadow=0;" vertex="1" parent="WIyWlLk6GJQsqaUBKTNV-1">
          <mxGeometry x="200" y="180" width="120" height="40" as="geometry" />
        </mxCell>
        <mxCell id="-8dzBgkcKJtmzE9KFqQj-51" value="" style="edgeStyle=orthogonalEdgeStyle;rounded=0;orthogonalLoop=1;jettySize=auto;html=1;fontColor=#000000;" edge="1" parent="WIyWlLk6GJQsqaUBKTNV-1" source="-8dzBgkcKJtmzE9KFqQj-1" target="-8dzBgkcKJtmzE9KFqQj-50">
          <mxGeometry relative="1" as="geometry" />
        </mxCell>
        <mxCell id="-8dzBgkcKJtmzE9KFqQj-1" value="CreateGame&lt;br&gt;" style="rounded=1;whiteSpace=wrap;html=1;fontSize=12;glass=0;strokeWidth=1;shadow=0;" vertex="1" parent="WIyWlLk6GJQsqaUBKTNV-1">
          <mxGeometry x="50" y="180" width="120" height="40" as="geometry" />
        </mxCell>
        <mxCell id="-8dzBgkcKJtmzE9KFqQj-23" value="" style="edgeStyle=orthogonalEdgeStyle;rounded=0;orthogonalLoop=1;jettySize=auto;html=1;fontColor=#000000;" edge="1" parent="WIyWlLk6GJQsqaUBKTNV-1" source="-8dzBgkcKJtmzE9KFqQj-18" target="-8dzBgkcKJtmzE9KFqQj-0">
          <mxGeometry relative="1" as="geometry" />
        </mxCell>
        <mxCell id="-8dzBgkcKJtmzE9KFqQj-24" value="是&lt;br&gt;" style="edgeLabel;html=1;align=center;verticalAlign=middle;resizable=0;points=[];fontColor=#000000;" vertex="1" connectable="0" parent="-8dzBgkcKJtmzE9KFqQj-23">
          <mxGeometry x="-0.46" y="-1" relative="1" as="geometry">
            <mxPoint as="offset" />
          </mxGeometry>
        </mxCell>
        <mxCell id="-8dzBgkcKJtmzE9KFqQj-58" value="" style="edgeStyle=orthogonalEdgeStyle;rounded=0;orthogonalLoop=1;jettySize=auto;html=1;fontColor=#000000;" edge="1" parent="WIyWlLk6GJQsqaUBKTNV-1" source="-8dzBgkcKJtmzE9KFqQj-18" target="-8dzBgkcKJtmzE9KFqQj-56">
          <mxGeometry relative="1" as="geometry" />
        </mxCell>
        <mxCell id="-8dzBgkcKJtmzE9KFqQj-59" value="否" style="edgeLabel;html=1;align=center;verticalAlign=middle;resizable=0;points=[];fontColor=#000000;" vertex="1" connectable="0" parent="-8dzBgkcKJtmzE9KFqQj-58">
          <mxGeometry x="0.5333" y="1" relative="1" as="geometry">
            <mxPoint as="offset" />
          </mxGeometry>
        </mxCell>
        <mxCell id="-8dzBgkcKJtmzE9KFqQj-18" value="是否预加载" style="rhombus;whiteSpace=wrap;html=1;rounded=1;glass=0;strokeWidth=1;shadow=0;" vertex="1" parent="WIyWlLk6GJQsqaUBKTNV-1">
          <mxGeometry x="350" y="160" width="100" height="80" as="geometry" />
        </mxCell>
        <mxCell id="-8dzBgkcKJtmzE9KFqQj-26" value="" style="edgeStyle=orthogonalEdgeStyle;rounded=0;orthogonalLoop=1;jettySize=auto;html=1;fontColor=#000000;" edge="1" parent="WIyWlLk6GJQsqaUBKTNV-1" source="-8dzBgkcKJtmzE9KFqQj-20" target="-8dzBgkcKJtmzE9KFqQj-25">
          <mxGeometry relative="1" as="geometry" />
        </mxCell>
        <mxCell id="-8dzBgkcKJtmzE9KFqQj-20" value="OnTransLoadingAnimOver" style="whiteSpace=wrap;html=1;rounded=1;glass=0;strokeWidth=1;shadow=0;" vertex="1" parent="WIyWlLk6GJQsqaUBKTNV-1">
          <mxGeometry x="610" y="180" width="170" height="40" as="geometry" />
        </mxCell>
        <mxCell id="-8dzBgkcKJtmzE9KFqQj-45" style="edgeStyle=orthogonalEdgeStyle;rounded=0;orthogonalLoop=1;jettySize=auto;html=1;entryX=0.5;entryY=0;entryDx=0;entryDy=0;fontColor=#000000;" edge="1" parent="WIyWlLk6GJQsqaUBKTNV-1" source="-8dzBgkcKJtmzE9KFqQj-25" target="-8dzBgkcKJtmzE9KFqQj-27">
          <mxGeometry relative="1" as="geometry">
            <Array as="points">
              <mxPoint x="690" y="440" />
              <mxPoint x="418" y="440" />
            </Array>
          </mxGeometry>
        </mxCell>
        <mxCell id="-8dzBgkcKJtmzE9KFqQj-25" value="模板开始" style="whiteSpace=wrap;html=1;rounded=1;glass=0;strokeWidth=1;shadow=0;" vertex="1" parent="WIyWlLk6GJQsqaUBKTNV-1">
          <mxGeometry x="620" y="300" width="150" height="50" as="geometry" />
        </mxCell>
        <mxCell id="-8dzBgkcKJtmzE9KFqQj-30" value="" style="edgeStyle=orthogonalEdgeStyle;rounded=0;orthogonalLoop=1;jettySize=auto;html=1;fontColor=#000000;" edge="1" parent="WIyWlLk6GJQsqaUBKTNV-1" source="-8dzBgkcKJtmzE9KFqQj-27" target="-8dzBgkcKJtmzE9KFqQj-29">
          <mxGeometry relative="1" as="geometry" />
        </mxCell>
        <mxCell id="-8dzBgkcKJtmzE9KFqQj-27" value="OnTemplateOverExit" style="whiteSpace=wrap;html=1;rounded=1;glass=0;strokeWidth=1;shadow=0;" vertex="1" parent="WIyWlLk6GJQsqaUBKTNV-1">
          <mxGeometry x="352.5" y="480" width="130" height="40" as="geometry" />
        </mxCell>
        <mxCell id="-8dzBgkcKJtmzE9KFqQj-32" value="" style="edgeStyle=orthogonalEdgeStyle;rounded=0;orthogonalLoop=1;jettySize=auto;html=1;fontColor=#000000;" edge="1" parent="WIyWlLk6GJQsqaUBKTNV-1" source="-8dzBgkcKJtmzE9KFqQj-29" target="-8dzBgkcKJtmzE9KFqQj-31">
          <mxGeometry relative="1" as="geometry" />
        </mxCell>
        <mxCell id="-8dzBgkcKJtmzE9KFqQj-29" value="LinkOverStatistic" style="whiteSpace=wrap;html=1;rounded=1;glass=0;strokeWidth=1;shadow=0;" vertex="1" parent="WIyWlLk6GJQsqaUBKTNV-1">
          <mxGeometry x="352.5" y="550" width="130" height="40" as="geometry" />
        </mxCell>
        <mxCell id="-8dzBgkcKJtmzE9KFqQj-31" value="&lt;p style=&quot;margin: 0px; font-stretch: normal; line-height: normal; font-family: &amp;quot;Helvetica Neue&amp;quot;;&quot;&gt;&lt;i&gt;CourseManager&lt;/i&gt;:EnterNextLink&lt;/p&gt;" style="whiteSpace=wrap;html=1;rounded=1;glass=0;strokeWidth=1;shadow=0;" vertex="1" parent="WIyWlLk6GJQsqaUBKTNV-1">
          <mxGeometry x="320" y="610" width="195" height="50" as="geometry" />
        </mxCell>
        <mxCell id="-8dzBgkcKJtmzE9KFqQj-38" value="" style="edgeStyle=orthogonalEdgeStyle;rounded=0;orthogonalLoop=1;jettySize=auto;html=1;fontColor=#000000;" edge="1" parent="WIyWlLk6GJQsqaUBKTNV-1" source="-8dzBgkcKJtmzE9KFqQj-33" target="-8dzBgkcKJtmzE9KFqQj-37">
          <mxGeometry relative="1" as="geometry" />
        </mxCell>
        <mxCell id="-8dzBgkcKJtmzE9KFqQj-33" value="OnTransLoadingAnimOver" style="rounded=1;whiteSpace=wrap;html=1;fontSize=12;glass=0;strokeWidth=1;shadow=0;" vertex="1" parent="WIyWlLk6GJQsqaUBKTNV-1">
          <mxGeometry x="175" y="300" width="170" height="40" as="geometry" />
        </mxCell>
        <mxCell id="-8dzBgkcKJtmzE9KFqQj-44" style="edgeStyle=orthogonalEdgeStyle;rounded=0;orthogonalLoop=1;jettySize=auto;html=1;fontColor=#000000;" edge="1" parent="WIyWlLk6GJQsqaUBKTNV-1" source="-8dzBgkcKJtmzE9KFqQj-37" target="-8dzBgkcKJtmzE9KFqQj-27">
          <mxGeometry relative="1" as="geometry">
            <Array as="points">
              <mxPoint x="260" y="440" />
              <mxPoint x="418" y="440" />
            </Array>
          </mxGeometry>
        </mxCell>
        <mxCell id="-8dzBgkcKJtmzE9KFqQj-37" value="模板开始" style="rounded=1;whiteSpace=wrap;html=1;fontSize=12;glass=0;strokeWidth=1;shadow=0;labelBackgroundColor=none;fontColor=#000000;" vertex="1" parent="WIyWlLk6GJQsqaUBKTNV-1">
          <mxGeometry x="190" y="370" width="140" height="40" as="geometry" />
        </mxCell>
        <mxCell id="-8dzBgkcKJtmzE9KFqQj-52" style="edgeStyle=orthogonalEdgeStyle;rounded=0;orthogonalLoop=1;jettySize=auto;html=1;fontColor=#000000;" edge="1" parent="WIyWlLk6GJQsqaUBKTNV-1" source="-8dzBgkcKJtmzE9KFqQj-50" target="-8dzBgkcKJtmzE9KFqQj-33">
          <mxGeometry relative="1" as="geometry" />
        </mxCell>
        <mxCell id="-8dzBgkcKJtmzE9KFqQj-50" value="StartLoading" style="rounded=1;whiteSpace=wrap;html=1;fontSize=12;glass=0;strokeWidth=1;shadow=0;" vertex="1" parent="WIyWlLk6GJQsqaUBKTNV-1">
          <mxGeometry x="50" y="240" width="120" height="40" as="geometry" />
        </mxCell>
        <mxCell id="-8dzBgkcKJtmzE9KFqQj-60" style="edgeStyle=orthogonalEdgeStyle;rounded=0;orthogonalLoop=1;jettySize=auto;html=1;entryX=0;entryY=0.5;entryDx=0;entryDy=0;fontColor=#000000;" edge="1" parent="WIyWlLk6GJQsqaUBKTNV-1" source="-8dzBgkcKJtmzE9KFqQj-56" target="-8dzBgkcKJtmzE9KFqQj-20">
          <mxGeometry relative="1" as="geometry" />
        </mxCell>
        <mxCell id="-8dzBgkcKJtmzE9KFqQj-56" value="StartLoading&lt;span style=&quot;caret-color: rgba(0, 0, 0, 0); color: rgba(0, 0, 0, 0); font-family: monospace; font-size: 0px; text-align: start;&quot;&gt;3CmxGraphModel%3E%3Croot%3E%3CmxCell%20id%3D%220%22%2F%3E%3CmxCell%20id%3D%221%22%20parent%3D%220%22%2F%3E%3CmxCell%20id%3D%222%22%20value%3D%22StartLoading%22%20style%3D%22rounded%3D1%3BwhiteSpace%3Dwrap%3Bhtml%3D1%3BfontSize%3D12%3Bglass%3D0%3BstrokeWidth%3D1%3Bshadow%3D0%3B%22%20vertex%3D%221%22%20parent%3D%221%22%3E%3CmxGeometry%20x%3D%2250%22%20y%3D%22240%22%20width%3D%22120%22%20height%3D%2240%22%20as%3D%22geometry%22%2F%3E%3C%2FmxCell%3E%3C%2Froot%3E%3C%2FmxGraphModel%3E&lt;/span&gt;" style="whiteSpace=wrap;html=1;rounded=1;glass=0;strokeWidth=1;shadow=0;" vertex="1" parent="WIyWlLk6GJQsqaUBKTNV-1">
          <mxGeometry x="482.5" y="180" width="100" height="40" as="geometry" />
        </mxCell>
      </root>
    </mxGraphModel>
  </diagram>
</mxfile>
